# xmcd
#
# Track frame offsets: 
#        150
#        13238
#        32000
#        48987
#        65876
#        81178
#        98944
#        115572
#        132320
#        151370
#        168384
#        188022
#        206590
#        220787
#        238732
#        255484
#        270253
#
# Disc length: 3708 seconds
#
# Revision: 0
# Processed by: cddbd v1.5.1PL0 Copyright (c) Steve Scherf et al.
# Submitted via: ExactAudioCopy v0.95a4
#
DISCID=e70e7a11
DTITLE=Adriana Calcanhotto - Cantada
DYEAR=1900
DGENRE=Blues
TTITLE0=Marina
TTITLE1=Maresia
TTITLE2=Programa
TTITLE3=Justo Agora
TTITLE4=Pelos Ares
TTITLE5=Eu Espero
TTITLE6=Noite
TTITLE7=Calor
TTITLE8=Sobre a Tarde
TTITLE9=Cantada (Depois de Ter Você)
TTITLE10=A Mulher Barbada
TTITLE11=Sou Sua
TTITLE12=Intimidade (Sou Seu)
TTITLE13=Music - Impressive Instant
TTITLE14=Se Tudo Pode Acontecer
TTITLE15=Jornal de Serviço (bonus Track)
TTITLE16=Ninar  (bonus Track)
EXTD=
EXTT0=
EXTT1=
EXTT2=
EXTT3=
EXTT4=
EXTT5=
EXTT6=
EXTT7=
EXTT8=
EXTT9=
EXTT10=
EXTT11=
EXTT12=
EXTT13=
EXTT14=
EXTT15=
EXTT16=
PLAYORDER=
